<mxfile host="app.diagrams.net" modified="2023-10-11T11:03:21.929Z" agent="Mozilla/5.0 (Windows NT 10.0; Win64; x64) AppleWebKit/537.36 (KHTML, like Gecko) Chrome/117.0.0.0 Safari/537.36" etag="h8xhD08-wmzKYRLKtjuv" version="22.0.4" type="github">
  <diagram name="Página-1" id="KuEYAnV2t2ApzkiDLnEL">
    <mxGraphModel dx="3585" dy="1990" grid="1" gridSize="10" guides="1" tooltips="1" connect="1" arrows="1" fold="1" page="1" pageScale="1" pageWidth="1654" pageHeight="2336" math="0" shadow="0">
      <root>
        <mxCell id="0" />
        <mxCell id="1" parent="0" />
        <mxCell id="yNHlzsefKViyXAPmLMq0-1" value="Início" style="rounded=1;whiteSpace=wrap;html=1;sketch=1;hachureGap=4;jiggle=2;curveFitting=1;fontFamily=Architects Daughter;fontSource=https%3A%2F%2Ffonts.googleapis.com%2Fcss%3Ffamily%3DArchitects%2BDaughter;fontSize=20;" vertex="1" parent="1">
          <mxGeometry x="570" y="90" width="120" height="60" as="geometry" />
        </mxCell>
        <mxCell id="yNHlzsefKViyXAPmLMq0-2" value="Fim" style="rounded=1;whiteSpace=wrap;html=1;sketch=1;hachureGap=4;jiggle=2;curveFitting=1;fontFamily=Architects Daughter;fontSource=https%3A%2F%2Ffonts.googleapis.com%2Fcss%3Ffamily%3DArchitects%2BDaughter;fontSize=20;" vertex="1" parent="1">
          <mxGeometry x="570" y="1890" width="120" height="60" as="geometry" />
        </mxCell>
        <mxCell id="yNHlzsefKViyXAPmLMq0-5" value="" style="endArrow=classic;html=1;rounded=0;sketch=1;hachureGap=4;jiggle=2;curveFitting=1;fontFamily=Architects Daughter;fontSource=https%3A%2F%2Ffonts.googleapis.com%2Fcss%3Ffamily%3DArchitects%2BDaughter;fontSize=16;exitX=0.5;exitY=1;exitDx=0;exitDy=0;entryX=0.5;entryY=0;entryDx=0;entryDy=0;" edge="1" parent="1" source="yNHlzsefKViyXAPmLMq0-1" target="yNHlzsefKViyXAPmLMq0-6">
          <mxGeometry width="50" height="50" relative="1" as="geometry">
            <mxPoint x="580" y="240" as="sourcePoint" />
            <mxPoint x="630" y="220" as="targetPoint" />
          </mxGeometry>
        </mxCell>
        <mxCell id="yNHlzsefKViyXAPmLMq0-9" style="edgeStyle=orthogonalEdgeStyle;rounded=0;sketch=1;hachureGap=4;jiggle=2;curveFitting=1;orthogonalLoop=1;jettySize=auto;html=1;exitX=0.5;exitY=1;exitDx=0;exitDy=0;entryX=0.5;entryY=0;entryDx=0;entryDy=0;fontFamily=Architects Daughter;fontSource=https%3A%2F%2Ffonts.googleapis.com%2Fcss%3Ffamily%3DArchitects%2BDaughter;fontSize=16;" edge="1" parent="1" source="yNHlzsefKViyXAPmLMq0-6" target="yNHlzsefKViyXAPmLMq0-8">
          <mxGeometry relative="1" as="geometry" />
        </mxCell>
        <mxCell id="yNHlzsefKViyXAPmLMq0-6" value="&amp;nbsp;Escrever (&quot;Para Somar Digite Somar&quot;)" style="shape=parallelogram;perimeter=parallelogramPerimeter;whiteSpace=wrap;html=1;fixedSize=1;sketch=1;hachureGap=4;jiggle=2;curveFitting=1;fontFamily=Architects Daughter;fontSource=https%3A%2F%2Ffonts.googleapis.com%2Fcss%3Ffamily%3DArchitects%2BDaughter;fontSize=20;" vertex="1" parent="1">
          <mxGeometry x="465" y="220" width="330" height="60" as="geometry" />
        </mxCell>
        <mxCell id="yNHlzsefKViyXAPmLMq0-11" style="edgeStyle=orthogonalEdgeStyle;rounded=0;sketch=1;hachureGap=4;jiggle=2;curveFitting=1;orthogonalLoop=1;jettySize=auto;html=1;exitX=0.5;exitY=1;exitDx=0;exitDy=0;entryX=0.5;entryY=0;entryDx=0;entryDy=0;fontFamily=Architects Daughter;fontSource=https%3A%2F%2Ffonts.googleapis.com%2Fcss%3Ffamily%3DArchitects%2BDaughter;fontSize=16;" edge="1" parent="1" source="yNHlzsefKViyXAPmLMq0-8" target="yNHlzsefKViyXAPmLMq0-10">
          <mxGeometry relative="1" as="geometry" />
        </mxCell>
        <mxCell id="yNHlzsefKViyXAPmLMq0-8" value="Ler(OP)" style="shape=parallelogram;perimeter=parallelogramPerimeter;whiteSpace=wrap;html=1;fixedSize=1;sketch=1;hachureGap=4;jiggle=2;curveFitting=1;fontFamily=Architects Daughter;fontSource=https%3A%2F%2Ffonts.googleapis.com%2Fcss%3Ffamily%3DArchitects%2BDaughter;fontSize=20;" vertex="1" parent="1">
          <mxGeometry x="570" y="320" width="120" height="60" as="geometry" />
        </mxCell>
        <mxCell id="yNHlzsefKViyXAPmLMq0-13" style="edgeStyle=orthogonalEdgeStyle;rounded=0;sketch=1;hachureGap=4;jiggle=2;curveFitting=1;orthogonalLoop=1;jettySize=auto;html=1;exitX=0.5;exitY=1;exitDx=0;exitDy=0;entryX=0.5;entryY=0;entryDx=0;entryDy=0;fontFamily=Architects Daughter;fontSource=https%3A%2F%2Ffonts.googleapis.com%2Fcss%3Ffamily%3DArchitects%2BDaughter;fontSize=16;" edge="1" parent="1" source="yNHlzsefKViyXAPmLMq0-10" target="yNHlzsefKViyXAPmLMq0-12">
          <mxGeometry relative="1" as="geometry" />
        </mxCell>
        <mxCell id="yNHlzsefKViyXAPmLMq0-10" value="Escrever (&quot;Adicione o primeiro número&quot;)" style="shape=parallelogram;perimeter=parallelogramPerimeter;whiteSpace=wrap;html=1;fixedSize=1;sketch=1;hachureGap=4;jiggle=2;curveFitting=1;fontFamily=Architects Daughter;fontSource=https%3A%2F%2Ffonts.googleapis.com%2Fcss%3Ffamily%3DArchitects%2BDaughter;fontSize=20;" vertex="1" parent="1">
          <mxGeometry x="465" y="470" width="330" height="60" as="geometry" />
        </mxCell>
        <mxCell id="yNHlzsefKViyXAPmLMq0-15" style="edgeStyle=orthogonalEdgeStyle;rounded=0;sketch=1;hachureGap=4;jiggle=2;curveFitting=1;orthogonalLoop=1;jettySize=auto;html=1;exitX=0.5;exitY=1;exitDx=0;exitDy=0;entryX=0.5;entryY=0;entryDx=0;entryDy=0;fontFamily=Architects Daughter;fontSource=https%3A%2F%2Ffonts.googleapis.com%2Fcss%3Ffamily%3DArchitects%2BDaughter;fontSize=16;" edge="1" parent="1" source="yNHlzsefKViyXAPmLMq0-12" target="yNHlzsefKViyXAPmLMq0-14">
          <mxGeometry relative="1" as="geometry" />
        </mxCell>
        <mxCell id="yNHlzsefKViyXAPmLMq0-12" value="Ler(x)" style="shape=parallelogram;perimeter=parallelogramPerimeter;whiteSpace=wrap;html=1;fixedSize=1;sketch=1;hachureGap=4;jiggle=2;curveFitting=1;fontFamily=Architects Daughter;fontSource=https%3A%2F%2Ffonts.googleapis.com%2Fcss%3Ffamily%3DArchitects%2BDaughter;fontSize=20;" vertex="1" parent="1">
          <mxGeometry x="570" y="630" width="120" height="60" as="geometry" />
        </mxCell>
        <mxCell id="yNHlzsefKViyXAPmLMq0-17" style="edgeStyle=orthogonalEdgeStyle;rounded=0;sketch=1;hachureGap=4;jiggle=2;curveFitting=1;orthogonalLoop=1;jettySize=auto;html=1;exitX=0.5;exitY=1;exitDx=0;exitDy=0;entryX=0.5;entryY=0;entryDx=0;entryDy=0;fontFamily=Architects Daughter;fontSource=https%3A%2F%2Ffonts.googleapis.com%2Fcss%3Ffamily%3DArchitects%2BDaughter;fontSize=16;" edge="1" parent="1" source="yNHlzsefKViyXAPmLMq0-14" target="yNHlzsefKViyXAPmLMq0-16">
          <mxGeometry relative="1" as="geometry" />
        </mxCell>
        <mxCell id="yNHlzsefKViyXAPmLMq0-14" value="Escrever (&quot;Adicione o Segundo número&quot;)" style="shape=parallelogram;perimeter=parallelogramPerimeter;whiteSpace=wrap;html=1;fixedSize=1;sketch=1;hachureGap=4;jiggle=2;curveFitting=1;fontFamily=Architects Daughter;fontSource=https%3A%2F%2Ffonts.googleapis.com%2Fcss%3Ffamily%3DArchitects%2BDaughter;fontSize=20;" vertex="1" parent="1">
          <mxGeometry x="420" y="770" width="420" height="60" as="geometry" />
        </mxCell>
        <mxCell id="yNHlzsefKViyXAPmLMq0-32" style="edgeStyle=orthogonalEdgeStyle;rounded=0;sketch=1;hachureGap=4;jiggle=2;curveFitting=1;orthogonalLoop=1;jettySize=auto;html=1;exitX=0.5;exitY=1;exitDx=0;exitDy=0;entryX=0.5;entryY=0;entryDx=0;entryDy=0;fontFamily=Architects Daughter;fontSource=https%3A%2F%2Ffonts.googleapis.com%2Fcss%3Ffamily%3DArchitects%2BDaughter;fontSize=16;" edge="1" parent="1" source="yNHlzsefKViyXAPmLMq0-16" target="yNHlzsefKViyXAPmLMq0-18">
          <mxGeometry relative="1" as="geometry" />
        </mxCell>
        <mxCell id="yNHlzsefKViyXAPmLMq0-16" value="Ler (y)" style="shape=parallelogram;perimeter=parallelogramPerimeter;whiteSpace=wrap;html=1;fixedSize=1;sketch=1;hachureGap=4;jiggle=2;curveFitting=1;fontFamily=Architects Daughter;fontSource=https%3A%2F%2Ffonts.googleapis.com%2Fcss%3Ffamily%3DArchitects%2BDaughter;fontSize=20;" vertex="1" parent="1">
          <mxGeometry x="570" y="910" width="120" height="60" as="geometry" />
        </mxCell>
        <mxCell id="yNHlzsefKViyXAPmLMq0-19" style="edgeStyle=orthogonalEdgeStyle;rounded=0;sketch=1;hachureGap=4;jiggle=2;curveFitting=1;orthogonalLoop=1;jettySize=auto;html=1;exitX=1;exitY=0.5;exitDx=0;exitDy=0;fontFamily=Architects Daughter;fontSource=https%3A%2F%2Ffonts.googleapis.com%2Fcss%3Ffamily%3DArchitects%2BDaughter;fontSize=16;entryX=0.5;entryY=0;entryDx=0;entryDy=0;" edge="1" parent="1" source="yNHlzsefKViyXAPmLMq0-18" target="yNHlzsefKViyXAPmLMq0-22">
          <mxGeometry relative="1" as="geometry">
            <mxPoint x="880" y="1230" as="targetPoint" />
          </mxGeometry>
        </mxCell>
        <mxCell id="yNHlzsefKViyXAPmLMq0-21" style="edgeStyle=orthogonalEdgeStyle;rounded=0;sketch=1;hachureGap=4;jiggle=2;curveFitting=1;orthogonalLoop=1;jettySize=auto;html=1;exitX=0.5;exitY=1;exitDx=0;exitDy=0;fontFamily=Architects Daughter;fontSource=https%3A%2F%2Ffonts.googleapis.com%2Fcss%3Ffamily%3DArchitects%2BDaughter;fontSize=16;entryX=0.5;entryY=0;entryDx=0;entryDy=0;" edge="1" parent="1" source="yNHlzsefKViyXAPmLMq0-18" target="yNHlzsefKViyXAPmLMq0-25">
          <mxGeometry relative="1" as="geometry">
            <mxPoint x="630" y="1390" as="targetPoint" />
          </mxGeometry>
        </mxCell>
        <mxCell id="yNHlzsefKViyXAPmLMq0-18" value="&amp;nbsp;Se (OP)=" style="rhombus;whiteSpace=wrap;html=1;sketch=1;hachureGap=4;jiggle=2;curveFitting=1;fontFamily=Architects Daughter;fontSource=https%3A%2F%2Ffonts.googleapis.com%2Fcss%3Ffamily%3DArchitects%2BDaughter;fontSize=20;" vertex="1" parent="1">
          <mxGeometry x="565" y="1060" width="130" height="120" as="geometry" />
        </mxCell>
        <mxCell id="yNHlzsefKViyXAPmLMq0-30" style="edgeStyle=orthogonalEdgeStyle;rounded=0;sketch=1;hachureGap=4;jiggle=2;curveFitting=1;orthogonalLoop=1;jettySize=auto;html=1;exitX=0.5;exitY=1;exitDx=0;exitDy=0;entryX=0.5;entryY=0;entryDx=0;entryDy=0;fontFamily=Architects Daughter;fontSource=https%3A%2F%2Ffonts.googleapis.com%2Fcss%3Ffamily%3DArchitects%2BDaughter;fontSize=16;" edge="1" parent="1" source="yNHlzsefKViyXAPmLMq0-22" target="yNHlzsefKViyXAPmLMq0-25">
          <mxGeometry relative="1" as="geometry" />
        </mxCell>
        <mxCell id="yNHlzsefKViyXAPmLMq0-22" value="&quot;Somar&quot; Então Resultado &amp;lt;-(x+y)" style="shape=parallelogram;perimeter=parallelogramPerimeter;whiteSpace=wrap;html=1;fixedSize=1;sketch=1;hachureGap=4;jiggle=2;curveFitting=1;fontFamily=Architects Daughter;fontSource=https%3A%2F%2Ffonts.googleapis.com%2Fcss%3Ffamily%3DArchitects%2BDaughter;fontSize=20;" vertex="1" parent="1">
          <mxGeometry x="795" y="1230" width="210" height="60" as="geometry" />
        </mxCell>
        <mxCell id="yNHlzsefKViyXAPmLMq0-33" style="edgeStyle=orthogonalEdgeStyle;rounded=0;sketch=1;hachureGap=4;jiggle=2;curveFitting=1;orthogonalLoop=1;jettySize=auto;html=1;exitX=0.5;exitY=1;exitDx=0;exitDy=0;entryX=0.5;entryY=0;entryDx=0;entryDy=0;fontFamily=Architects Daughter;fontSource=https%3A%2F%2Ffonts.googleapis.com%2Fcss%3Ffamily%3DArchitects%2BDaughter;fontSize=16;" edge="1" parent="1" source="yNHlzsefKViyXAPmLMq0-25" target="yNHlzsefKViyXAPmLMq0-31">
          <mxGeometry relative="1" as="geometry" />
        </mxCell>
        <mxCell id="yNHlzsefKViyXAPmLMq0-25" value="FIMSE" style="shape=parallelogram;perimeter=parallelogramPerimeter;whiteSpace=wrap;html=1;fixedSize=1;sketch=1;hachureGap=4;jiggle=2;curveFitting=1;fontFamily=Architects Daughter;fontSource=https%3A%2F%2Ffonts.googleapis.com%2Fcss%3Ffamily%3DArchitects%2BDaughter;fontSize=20;" vertex="1" parent="1">
          <mxGeometry x="570" y="1400" width="120" height="60" as="geometry" />
        </mxCell>
        <mxCell id="yNHlzsefKViyXAPmLMq0-34" style="edgeStyle=orthogonalEdgeStyle;rounded=0;sketch=1;hachureGap=4;jiggle=2;curveFitting=1;orthogonalLoop=1;jettySize=auto;html=1;exitX=0.5;exitY=1;exitDx=0;exitDy=0;fontFamily=Architects Daughter;fontSource=https%3A%2F%2Ffonts.googleapis.com%2Fcss%3Ffamily%3DArchitects%2BDaughter;fontSize=16;entryX=0.5;entryY=0;entryDx=0;entryDy=0;" edge="1" parent="1" source="yNHlzsefKViyXAPmLMq0-31" target="yNHlzsefKViyXAPmLMq0-35">
          <mxGeometry relative="1" as="geometry">
            <mxPoint x="630" y="1710" as="targetPoint" />
          </mxGeometry>
        </mxCell>
        <mxCell id="yNHlzsefKViyXAPmLMq0-31" value="Escrever(&quot;O resultado é&quot;)" style="shape=parallelogram;perimeter=parallelogramPerimeter;whiteSpace=wrap;html=1;fixedSize=1;sketch=1;hachureGap=4;jiggle=2;curveFitting=1;fontFamily=Architects Daughter;fontSource=https%3A%2F%2Ffonts.googleapis.com%2Fcss%3Ffamily%3DArchitects%2BDaughter;fontSize=20;" vertex="1" parent="1">
          <mxGeometry x="485" y="1550" width="290" height="60" as="geometry" />
        </mxCell>
        <mxCell id="yNHlzsefKViyXAPmLMq0-36" style="edgeStyle=orthogonalEdgeStyle;rounded=0;sketch=1;hachureGap=4;jiggle=2;curveFitting=1;orthogonalLoop=1;jettySize=auto;html=1;exitX=0.5;exitY=1;exitDx=0;exitDy=0;entryX=0.5;entryY=0;entryDx=0;entryDy=0;fontFamily=Architects Daughter;fontSource=https%3A%2F%2Ffonts.googleapis.com%2Fcss%3Ffamily%3DArchitects%2BDaughter;fontSize=16;" edge="1" parent="1" source="yNHlzsefKViyXAPmLMq0-35" target="yNHlzsefKViyXAPmLMq0-2">
          <mxGeometry relative="1" as="geometry" />
        </mxCell>
        <mxCell id="yNHlzsefKViyXAPmLMq0-35" value="Escrever (Resultado)" style="shape=parallelogram;perimeter=parallelogramPerimeter;whiteSpace=wrap;html=1;fixedSize=1;sketch=1;hachureGap=4;jiggle=2;curveFitting=1;fontFamily=Architects Daughter;fontSource=https%3A%2F%2Ffonts.googleapis.com%2Fcss%3Ffamily%3DArchitects%2BDaughter;fontSize=20;" vertex="1" parent="1">
          <mxGeometry x="510" y="1710" width="240" height="60" as="geometry" />
        </mxCell>
      </root>
    </mxGraphModel>
  </diagram>
</mxfile>
